<svg width="40" height="40" viewBox="0 0 40 40" fill="none" xmlns="http://www.w3.org/2000/svg">
<mask id="mask0_98_10790" style="mask-type:alpha" maskUnits="userSpaceOnUse" x="0" y="0" width="40" height="40">
<rect width="40" height="40" fill="#D9D9D9"/>
</mask>
<g mask="url(#mask0_98_10790)">
<path d="M17.6339 23.5769L13.7623 19.7048C13.5314 19.4743 13.2413 19.3562 12.8918 19.3507C12.5427 19.3454 12.2473 19.4634 12.0056 19.7048C11.7642 19.9465 11.6435 20.2393 11.6435 20.5832C11.6435 20.9271 11.7642 21.2198 12.0056 21.4615L16.5793 26.0353C16.8807 26.3364 17.2323 26.4869 17.6339 26.4869C18.0356 26.4869 18.3871 26.3364 18.6885 26.0353L27.961 16.7628C28.1916 16.5319 28.3096 16.2418 28.3152 15.8923C28.3205 15.5432 28.2024 15.2478 27.961 15.0061C27.7193 14.7647 27.4266 14.644 27.0827 14.644C26.7388 14.644 26.446 14.7647 26.2043 15.0061L17.6339 23.5769ZM20.0023 35.8332C17.8123 35.8332 15.7538 35.4176 13.8268 34.5865C11.8999 33.7554 10.2238 32.6275 8.79852 31.2028C7.37324 29.778 6.24477 28.1026 5.4131 26.1765C4.58171 24.2504 4.16602 22.1925 4.16602 20.0028C4.16602 17.8128 4.58157 15.7543 5.41268 13.8273C6.24379 11.9004 7.37171 10.2243 8.79643 8.799C10.2212 7.37373 11.8966 6.24525 13.8227 5.41359C15.7488 4.5822 17.8067 4.1665 19.9964 4.1665C22.1864 4.1665 24.2449 4.58206 26.1719 5.41317C28.0988 6.24428 29.7749 7.3722 31.2002 8.79692C32.6255 10.2216 33.7539 11.8971 34.5856 13.8232C35.417 15.7493 35.8327 17.8072 35.8327 19.9969C35.8327 22.1869 35.4171 24.2454 34.586 26.1723C33.7549 28.0993 32.627 29.7754 31.2023 31.2007C29.7775 32.6259 28.1021 33.7544 26.176 34.5861C24.2499 35.4175 22.192 35.8332 20.0023 35.8332ZM19.9993 33.3332C23.7216 33.3332 26.8743 32.0415 29.4577 29.4582C32.041 26.8748 33.3327 23.7221 33.3327 19.9998C33.3327 16.2776 32.041 13.1248 29.4577 10.5415C26.8743 7.95817 23.7216 6.6665 19.9993 6.6665C16.2771 6.6665 13.1243 7.95817 10.541 10.5415C7.95768 13.1248 6.66602 16.2776 6.66602 19.9998C6.66602 23.7221 7.95768 26.8748 10.541 29.4582C13.1243 32.0415 16.2771 33.3332 19.9993 33.3332Z" fill="#343D2D"/>
</g>
</svg>
