<svg width="24" height="24" viewBox="0 0 24 24" fill="none" xmlns="http://www.w3.org/2000/svg">
<mask id="mask0_36_2369" style="mask-type:alpha" maskUnits="userSpaceOnUse" x="0" y="0" width="24" height="24">
<rect width="24" height="24" fill="#D9D9D9"/>
</mask>
<g mask="url(#mask0_36_2369)">
<path d="M11.9997 13.0635L8.7534 16.3095C8.60857 16.4545 8.43298 16.5254 8.22665 16.522C8.02015 16.5189 7.84448 16.4449 7.69965 16.3C7.55482 16.1552 7.4824 15.978 7.4824 15.7683C7.4824 15.5586 7.55482 15.3814 7.69965 15.2365L10.9362 12L7.69015 8.7788C7.54515 8.63396 7.47432 8.45671 7.47765 8.24705C7.48082 8.03755 7.55482 7.86038 7.69965 7.71555C7.84448 7.57055 8.02173 7.49805 8.2314 7.49805C8.44107 7.49805 8.61832 7.57055 8.76315 7.71555L11.9997 10.9615L15.2209 7.71555C15.3657 7.57055 15.5413 7.49805 15.7477 7.49805C15.9542 7.49805 16.1298 7.57055 16.2747 7.71555C16.4298 7.87055 16.5074 8.0503 16.5074 8.2548C16.5074 8.4593 16.4298 8.63396 16.2747 8.7788L13.0382 12L16.2842 15.2463C16.4292 15.3911 16.5017 15.5667 16.5017 15.773C16.5017 15.9795 16.4292 16.1552 16.2842 16.3C16.1292 16.4552 15.9494 16.5328 15.7449 16.5328C15.5404 16.5328 15.3657 16.4552 15.2209 16.3L11.9997 13.0635Z" fill="#1C1B1F"/>
</g>
</svg>
