<svg width="24" height="24" viewBox="0 0 24 24" fill="none" xmlns="http://www.w3.org/2000/svg">
<mask id="mask0_36_2383" style="mask-type:alpha" maskUnits="userSpaceOnUse" x="0" y="0" width="24" height="24">
<rect width="24" height="24" fill="#55644A"/>
</mask>
<g mask="url(#mask0_36_2383)">
<path d="M11.9995 10.4385L7.92652 14.5115C7.78802 14.65 7.61394 14.7208 7.40427 14.724C7.19477 14.7272 7.01752 14.6563 6.87252 14.5115C6.72769 14.3667 6.65527 14.191 6.65527 13.9845C6.65527 13.7782 6.72769 13.6026 6.87252 13.4578L11.3668 8.96351C11.4604 8.86985 11.5592 8.80385 11.663 8.76551C11.7669 8.72701 11.879 8.70776 11.9995 8.70776C12.12 8.70776 12.2322 8.72701 12.336 8.76551C12.4399 8.80385 12.5386 8.86985 12.6323 8.96351L17.1265 13.4578C17.2649 13.5963 17.3357 13.7703 17.339 13.9798C17.3422 14.1894 17.2714 14.3667 17.1265 14.5115C16.9815 14.6563 16.8059 14.7288 16.5995 14.7288C16.3932 14.7288 16.2175 14.6563 16.0725 14.5115L11.9995 10.4385Z" fill="#55644A"/>
</g>
</svg>
