<svg width="24" height="24" viewBox="0 0 24 24" fill="none" xmlns="http://www.w3.org/2000/svg">
<mask id="mask0_36_2387" style="mask-type:alpha" maskUnits="userSpaceOnUse" x="0" y="0" width="24" height="24">
<rect width="24" height="24" fill="#55644A"/>
</mask>
<g mask="url(#mask0_36_2387)">
<path d="M11.9998 14.6615C11.8793 14.6615 11.7671 14.6423 11.6633 14.6038C11.5594 14.5654 11.4607 14.4994 11.367 14.4058L6.87276 9.9115C6.73442 9.773 6.66359 9.599 6.66026 9.3895C6.65709 9.17984 6.72792 9.00259 6.87276 8.85775C7.01776 8.71292 7.19342 8.6405 7.39976 8.6405C7.60609 8.6405 7.78176 8.71292 7.92676 8.85775L11.9998 12.9308L16.0728 8.85775C16.2113 8.71925 16.3853 8.64842 16.595 8.64525C16.8045 8.64209 16.9818 8.71292 17.1268 8.85775C17.2716 9.00259 17.344 9.17817 17.344 9.3845C17.344 9.591 17.2716 9.76667 17.1268 9.9115L12.6325 14.4058C12.5388 14.4994 12.4401 14.5654 12.3363 14.6038C12.2324 14.6423 12.1203 14.6615 11.9998 14.6615Z" fill="#55644A"/>
</g>
</svg>
