<svg width="60" height="59" viewBox="0 0 60 59" fill="none" xmlns="http://www.w3.org/2000/svg">
<path d="M48.9063 13.3566H42.0773C39.4637 13.3566 37.2295 14.2575 35.3747 16.0593C33.6042 17.8611 32.719 20.0315 32.719 22.5704V29.0815H27.281V36.9439H32.719V55.2486H40.8126V36.9439H48.9063V29.0815H40.8126V23.7989C40.8126 23.1437 41.0656 22.5704 41.5714 22.079C42.0773 21.5057 42.7096 21.219 43.4684 21.219H48.9063V13.3566ZM3 3.91431C3 3.36202 3.44772 2.91431 4 2.91431H56C56.5523 2.91431 57 3.36202 57 3.91431V54.2486C57 54.8009 56.5523 55.2486 56 55.2486H4C3.44771 55.2486 3 54.8009 3 54.2486V3.91431Z" fill="#343D2D"/>
</svg>
