<svg width="60" height="60" viewBox="0 0 60 60" fill="none" xmlns="http://www.w3.org/2000/svg">
<path d="M29.9999 7.86496C37.2093 7.86496 38.0632 7.8924 40.9102 8.0223C43.5427 8.14244 44.9723 8.5823 45.9238 8.95195C47.184 9.44175 48.0835 10.0269 49.0283 10.9717C49.9731 11.9165 50.5583 12.816 51.0479 14.0762C51.4177 15.0277 51.8576 16.4573 51.9777 19.0897C52.1076 21.9368 52.135 22.7907 52.135 30.0001C52.135 37.2094 52.1076 38.0633 51.9777 40.9103C51.8576 43.5428 51.4177 44.9724 51.0479 45.9239C50.5583 47.1841 49.9731 48.0837 49.0283 49.0284C48.0835 49.9732 47.184 50.5584 45.9238 51.0481C44.9723 51.4178 43.5427 51.8577 40.9102 51.9778C38.0636 52.1077 37.2097 52.1351 29.9999 52.1351C22.7902 52.1351 21.9363 52.1077 19.0897 51.9778C16.4572 51.8577 15.0276 51.4178 14.0762 51.0481C12.8159 50.5584 11.9163 49.9732 10.9716 49.0284C10.0268 48.0837 9.44164 47.1841 8.95195 45.9239C8.58219 44.9724 8.14234 43.5428 8.02219 40.9104C7.89229 38.0633 7.86486 37.2094 7.86486 30.0001C7.86486 22.7907 7.89229 21.9368 8.02219 19.0898C8.14234 16.4573 8.58219 15.0277 8.95195 14.0762C9.44164 12.816 10.0268 11.9165 10.9716 10.9717C11.9163 10.0269 12.8159 9.44175 14.0762 8.95195C15.0276 8.5823 16.4572 8.14244 19.0896 8.0223C21.9367 7.8924 22.7906 7.86496 29.9999 7.86496ZM29.9999 3C22.6671 3 21.7478 3.03108 18.8679 3.16248C15.994 3.29366 14.0314 3.75002 12.3139 4.41752C10.5384 5.10752 9.03265 6.03074 7.53164 7.53175C6.03063 9.03276 5.10741 10.5385 4.41741 12.314C3.74992 14.0315 3.29356 15.9941 3.16237 18.868C3.03097 21.7478 3 22.6672 3 30.0001C3 37.3329 3.03097 38.2523 3.16237 41.1321C3.29356 44.006 3.74992 45.9686 4.41741 47.6861C5.10741 49.4615 6.03063 50.9673 7.53164 52.4684C9.03265 53.9694 10.5384 54.8926 12.3139 55.5826C14.0314 56.2501 15.994 56.7064 18.8679 56.8376C21.7478 56.969 22.6671 57 29.9999 57C37.3328 57 38.2522 56.969 41.132 56.8376C44.0059 56.7064 45.9685 56.2501 47.686 55.5826C49.4615 54.8926 50.9672 53.9694 52.4682 52.4684C53.9693 50.9673 54.8925 49.4616 55.5825 47.6861C56.25 45.9686 56.7063 44.006 56.8375 41.1321C56.9689 38.2523 57 37.3329 57 30.0001C57 22.6672 56.9689 21.7478 56.8375 18.868C56.7063 15.9941 56.25 14.0315 55.5825 12.314C54.8925 10.5385 53.9693 9.03276 52.4682 7.53175C50.9672 6.03074 49.4615 5.10752 47.686 4.41752C45.9685 3.75002 44.0059 3.29366 41.132 3.16248C38.2522 3.03108 37.3328 3 29.9999 3ZM29.9999 16.1351C22.3426 16.1351 16.135 22.3427 16.135 30.0001C16.135 37.6574 22.3426 43.865 29.9999 43.865C37.6573 43.865 43.8649 37.6574 43.8649 30.0001C43.8649 22.3427 37.6573 16.1351 29.9999 16.1351ZM29.9999 39.0001C25.0294 39.0001 20.9999 34.9706 20.9999 30.0001C20.9999 25.0295 25.0294 21 29.9999 21C34.9705 21 39 25.0295 39 30.0001C39 34.9706 34.9705 39.0001 29.9999 39.0001ZM47.6526 15.5874C47.6526 17.3768 46.2021 18.8274 44.4126 18.8274C42.6232 18.8274 41.1726 17.3768 41.1726 15.5874C41.1726 13.7979 42.6232 12.3474 44.4126 12.3474C46.2021 12.3474 47.6526 13.7979 47.6526 15.5874Z" fill="#343D2D"/>
</svg>
