
<svg width="161" height="48" viewBox="0 0 161 48" fill="red" xmlns="http://www.w3.org/2000/svg">
<mask id="path-1-outside-1_120_5009" maskUnits="userSpaceOnUse" x="0.0683594" y="-0.5" width="30" height="49" fill="#55644a">
<rect fill="#55644a" x="0.0683594" y="-0.5" width="30" height="49"/>
<path d="M21.7919 0.505063C18.7371 0.742599 15.9722 2.31897 14.1476 4.7735C12.1735 7.42778 11.9916 10.8073 13.4614 13.7369C14.9276 16.6575 17.6564 18.6585 20.1528 20.6416C22.6492 22.6246 25.0935 24.9928 26.3525 28.097C28.5553 33.5297 26.6029 40.0097 21.7775 43.3532C17.3466 46.4232 10.6029 46.7273 6.39353 43.0707C3.59088 40.6341 2.2454 36.7562 3.10636 33.123C4.01596 29.2828 6.76998 26.1607 9.27363 23.2383L7.76784 22.8406C10.2337 30.6955 12.6995 38.5485 15.1653 46.4034C15.4859 47.4255 16.8188 47.1412 16.9341 46.164C17.8203 38.6673 18.7155 31.1669 19.6755 23.6792C20.6355 16.1914 21.8639 8.93217 22.7843 1.53258C22.9266 0.386296 21.1236 0.397093 20.9831 1.53258C20.0645 8.93037 18.8235 16.285 17.8743 23.6792C16.9251 31.0733 16.0191 38.6673 15.1329 46.164L16.9017 45.9247C14.4358 38.0698 11.97 30.2168 9.50418 22.3619C9.31506 21.7609 8.46129 21.4262 7.99839 21.9642C5.67846 24.6725 3.30449 27.4491 1.96261 30.7926C0.647743 34.0677 0.777429 37.6937 2.38769 40.8447C5.18674 46.317 11.6674 48.399 17.4384 47.1484C23.2743 45.8833 27.9375 41.075 28.885 35.1564C29.3839 32.0397 28.8561 28.9139 27.408 26.1085C25.85 23.0907 23.3679 20.8989 20.7436 18.8277C17.8023 16.5063 14.144 13.6559 14.2575 9.50801C14.362 5.66966 18.1409 2.5871 21.7901 2.30277C22.9374 2.2128 22.9482 0.413288 21.7901 0.503264L21.7919 0.505063Z"/>
</mask>
<path d="M21.7919 0.505063C18.7371 0.742599 15.9722 2.31897 14.1476 4.7735C12.1735 7.42778 11.9916 10.8073 13.4614 13.7369C14.9276 16.6575 17.6564 18.6585 20.1528 20.6416C22.6492 22.6246 25.0935 24.9928 26.3525 28.097C28.5553 33.5297 26.6029 40.0097 21.7775 43.3532C17.3466 46.4232 10.6029 46.7273 6.39353 43.0707C3.59088 40.6341 2.2454 36.7562 3.10636 33.123C4.01596 29.2828 6.76998 26.1607 9.27363 23.2383L7.76784 22.8406C10.2337 30.6955 12.6995 38.5485 15.1653 46.4034C15.4859 47.4255 16.8188 47.1412 16.9341 46.164C17.8203 38.6673 18.7155 31.1669 19.6755 23.6792C20.6355 16.1914 21.8639 8.93217 22.7843 1.53258C22.9266 0.386296 21.1236 0.397093 20.9831 1.53258C20.0645 8.93037 18.8235 16.285 17.8743 23.6792C16.9251 31.0733 16.0191 38.6673 15.1329 46.164L16.9017 45.9247C14.4358 38.0698 11.97 30.2168 9.50418 22.3619C9.31506 21.7609 8.46129 21.4262 7.99839 21.9642C5.67846 24.6725 3.30449 27.4491 1.96261 30.7926C0.647743 34.0677 0.777429 37.6937 2.38769 40.8447C5.18674 46.317 11.6674 48.399 17.4384 47.1484C23.2743 45.8833 27.9375 41.075 28.885 35.1564C29.3839 32.0397 28.8561 28.9139 27.408 26.1085C25.85 23.0907 23.3679 20.8989 20.7436 18.8277C17.8023 16.5063 14.144 13.6559 14.2575 9.50801C14.362 5.66966 18.1409 2.5871 21.7901 2.30277C22.9374 2.2128 22.9482 0.413288 21.7901 0.503264L21.7919 0.505063Z" fill="#55644a"/>
<path d="M21.7919 0.505063L21.8306 1.00356L22.9141 0.91931L22.1452 0.151307L21.7919 0.505063ZM14.1476 4.7735L14.5488 5.07189L14.5489 5.07179L14.1476 4.7735ZM13.4614 13.7369L13.0145 13.9611L13.0145 13.9612L13.4614 13.7369ZM26.3525 28.097L26.8158 27.9091L26.8158 27.909L26.3525 28.097ZM21.7775 43.3532L22.0622 43.7642L22.0622 43.7642L21.7775 43.3532ZM6.39353 43.0707L6.06548 43.448L6.06563 43.4482L6.39353 43.0707ZM3.10636 33.123L3.59289 33.2383L3.5929 33.2382L3.10636 33.123ZM9.27363 23.2383L9.65334 23.5636L10.1718 22.9584L9.40131 22.7549L9.27363 23.2383ZM7.76784 22.8406L7.89551 22.3572L7.01938 22.1258L7.29079 22.9903L7.76784 22.8406ZM15.1653 46.4034L15.6424 46.2537L15.6424 46.2536L15.1653 46.4034ZM16.9341 46.164L16.4375 46.1053L16.4375 46.1055L16.9341 46.164ZM22.7843 1.53258L23.2805 1.5943L23.2805 1.59418L22.7843 1.53258ZM20.9831 1.53258L21.4793 1.5942L21.4794 1.59398L20.9831 1.53258ZM15.1329 46.164L14.6363 46.1053L14.5606 46.746L15.1999 46.6595L15.1329 46.164ZM16.9017 45.9247L16.9687 46.4202L17.5563 46.3407L17.3787 45.775L16.9017 45.9247ZM9.50418 22.3619L9.98123 22.2122L9.98113 22.2118L9.50418 22.3619ZM7.99839 21.9642L7.61936 21.6381L7.61866 21.6389L7.99839 21.9642ZM1.96261 30.7926L2.42661 30.9789L2.42663 30.9789L1.96261 30.7926ZM2.38769 40.8447L1.94246 41.0722L1.94254 41.0724L2.38769 40.8447ZM17.4384 47.1484L17.5443 47.637L17.5443 47.637L17.4384 47.1484ZM28.885 35.1564L28.3912 35.0774L28.3912 35.0774L28.885 35.1564ZM27.408 26.1085L27.8523 25.8792L27.8523 25.8791L27.408 26.1085ZM20.7436 18.8277L21.0534 18.4352L21.0534 18.4352L20.7436 18.8277ZM14.2575 9.50801L14.7573 9.52169L14.7573 9.52162L14.2575 9.50801ZM21.7901 2.30277L21.8289 2.80126L21.8292 2.80124L21.7901 2.30277ZM21.7901 0.503264L21.7514 0.00476579L20.6678 0.0889468L21.4367 0.857019L21.7901 0.503264ZM21.7531 0.00656798C18.5491 0.255705 15.6541 1.90887 13.7464 4.47521L14.5489 5.07179C16.2904 2.72907 18.925 1.22949 21.8306 1.00356L21.7531 0.00656798ZM13.7464 4.47511C11.6518 7.29151 11.4661 10.8747 13.0145 13.9611L13.9083 13.5127C12.5172 10.7398 12.6953 7.56405 14.5488 5.07189L13.7464 4.47511ZM13.0145 13.9612C14.5414 17.0028 17.3791 19.0769 19.8418 21.0331L20.4638 20.2501C17.9336 18.2402 15.3137 16.3122 13.9082 13.5125L13.0145 13.9612ZM19.8418 21.0331C22.3199 23.0016 24.6799 25.3035 25.8891 28.2849L26.8158 27.909C25.507 24.6821 22.9786 22.2477 20.4638 20.2501L19.8418 21.0331ZM25.8891 28.2848C28.0035 33.4992 26.1271 39.7311 21.4927 42.9422L22.0622 43.7642C27.0786 40.2884 29.1072 33.5601 26.8158 27.9091L25.8891 28.2848ZM21.4927 42.9422C17.2097 45.9097 10.7241 46.1702 6.72143 42.6932L6.06563 43.4482C10.4817 47.2843 17.4834 46.9366 22.0622 43.7642L21.4927 42.9422ZM6.72158 42.6933C4.05206 40.3726 2.77694 36.6815 3.59289 33.2383L2.61984 33.0077C1.71385 36.8309 3.1297 40.8957 6.06548 43.448L6.72158 42.6933ZM3.5929 33.2382C4.46909 29.5391 7.12765 26.5117 9.65334 23.5636L8.89392 22.913C6.41231 25.8097 3.56284 29.0265 2.61983 33.0077L3.5929 33.2382ZM9.40131 22.7549L7.89551 22.3572L7.64016 23.324L9.14595 23.7217L9.40131 22.7549ZM7.29079 22.9903C8.52371 26.9178 9.75662 30.8448 10.9895 34.7718C12.2224 38.6987 13.4554 42.6257 14.6883 46.5531L15.6424 46.2536C14.4094 42.3262 13.1765 38.3992 11.9436 34.4722C10.7107 30.5452 9.47779 26.6183 8.24488 22.6908L7.29079 22.9903ZM14.6882 46.553C14.8015 46.9141 15.0174 47.1939 15.3059 47.3648C15.5899 47.533 15.9121 47.5767 16.2099 47.5265C16.8013 47.4266 17.3452 46.9468 17.4306 46.2226L16.4375 46.1055C16.4077 46.3585 16.2275 46.5093 16.0435 46.5404C15.9536 46.5556 15.8753 46.5398 15.8156 46.5044C15.7603 46.4717 15.6894 46.4037 15.6424 46.2537L14.6882 46.553ZM17.4306 46.2227C18.3168 38.7261 19.2117 31.2279 20.1714 23.7427L19.1795 23.6156C18.2192 31.106 17.3237 38.6085 16.4375 46.1053L17.4306 46.2227ZM20.1714 23.7427C20.6507 20.0045 21.1971 16.3227 21.7394 12.6458C22.2815 8.97052 22.8195 5.3005 23.2805 1.5943L22.2882 1.47087C21.8288 5.16425 21.2924 8.82364 20.7501 12.4998C20.2081 16.1744 19.6603 19.8661 19.1795 23.6156L20.1714 23.7427ZM23.2805 1.59418C23.3336 1.16627 23.2046 0.788242 22.9255 0.525362C22.6614 0.276556 22.3115 0.175951 21.9883 0.176919C21.3526 0.178823 20.5956 0.59258 20.4869 1.47119L21.4794 1.59398C21.5111 1.3371 21.7259 1.17771 21.9913 1.17691C22.1186 1.17653 22.2015 1.21719 22.2398 1.25327C22.2632 1.27527 22.3062 1.32575 22.2881 1.47099L23.2805 1.59418ZM20.487 1.47097C20.0285 5.16343 19.4894 8.8462 18.9456 12.5343C18.402 16.2206 17.8537 19.9128 17.3784 23.6155L18.3702 23.7428C18.8441 20.0513 19.3909 16.3691 19.9349 12.6802C20.4785 8.99295 21.0192 5.29953 21.4793 1.5942L20.487 1.47097ZM17.3784 23.6155C16.4288 31.0124 15.5225 38.6085 14.6363 46.1053L15.6294 46.2227C16.5156 38.7261 17.4214 31.1343 18.3702 23.7428L17.3784 23.6155ZM15.1999 46.6595L16.9687 46.4202L16.8346 45.4292L15.0658 45.6686L15.1999 46.6595ZM17.3787 45.775C16.1458 41.8475 14.9129 37.9205 13.68 33.9935C12.447 30.0666 11.2141 26.1396 9.98123 22.2122L9.02714 22.5117C10.2601 26.4391 11.493 30.3661 12.7259 34.2931C13.9588 38.2201 15.1917 42.147 16.4246 46.0745L17.3787 45.775ZM9.98113 22.2118C9.83142 21.7361 9.43398 21.3924 9.00218 21.2584C8.55511 21.1196 8.00489 21.19 7.61936 21.6381L8.37742 22.2903C8.4548 22.2004 8.56291 22.1691 8.70573 22.2134C8.86382 22.2625 8.98782 22.3867 9.02724 22.512L9.98113 22.2118ZM7.61866 21.6389C5.30826 24.3361 2.87629 27.1737 1.49859 30.6064L2.42663 30.9789C3.7327 27.7246 6.04866 25.0089 8.37812 22.2895L7.61866 21.6389ZM1.49861 30.6063C0.131193 34.0123 0.264818 37.7894 1.94246 41.0722L2.83292 40.6172C1.29004 37.5981 1.16429 34.1231 2.42661 30.9789L1.49861 30.6063ZM1.94254 41.0724C4.87073 46.7972 11.6126 48.9225 17.5443 47.637L17.3325 46.6597C11.7222 47.8756 5.50274 45.8368 2.83284 40.617L1.94254 41.0724ZM17.5443 47.637C23.5764 46.3294 28.3979 41.3625 29.3787 35.2355L28.3912 35.0774C27.4772 40.7875 22.9721 45.4372 17.3325 46.6597L17.5443 47.637ZM29.3787 35.2355C29.895 32.0103 29.348 28.7768 27.8523 25.8792L26.9637 26.3378C28.3643 29.0511 28.8728 32.0691 28.3912 35.0774L29.3787 35.2355ZM27.8523 25.8791C26.2415 22.7592 23.6842 20.5116 21.0534 18.4352L20.4338 19.2202C23.0516 21.2863 25.4584 23.4222 26.9637 26.3379L27.8523 25.8791ZM21.0534 18.4352C19.5736 17.2673 17.9676 16.0065 16.7391 14.5326C15.5171 13.0667 14.7051 11.4321 14.7573 9.52169L13.7577 9.49434C13.6965 11.7318 14.6568 13.5964 15.9709 15.1729C17.2785 16.7416 18.9723 18.0667 20.4338 19.2202L21.0534 18.4352ZM14.7573 9.52162C14.8051 7.76782 15.6937 6.15875 17.0309 4.94253C18.3696 3.72504 20.1239 2.9341 21.8289 2.80126L21.7512 1.80429C19.807 1.95577 17.8473 2.84828 16.3581 4.20274C14.8675 5.55847 13.8144 7.40985 13.7577 9.49441L14.7573 9.52162ZM21.8292 2.80124C22.7249 2.731 23.1527 1.97954 23.1546 1.33704C23.1556 1.01178 23.0531 0.663444 22.8091 0.396486C22.5533 0.116604 22.1821 -0.0286985 21.7514 0.00476579L21.8288 1.00176C21.9771 0.990238 22.039 1.03613 22.071 1.07117C22.1148 1.11912 22.155 1.20942 22.1547 1.33404C22.1539 1.59129 22.0026 1.78458 21.751 1.8043L21.8292 2.80124ZM21.4367 0.857019L21.4385 0.858819L22.1452 0.151307L22.1434 0.149508L21.4367 0.857019Z" fill="#55644a" mask="url(#path-1-outside-1_120_5009)"/>
<path d="M42.6143 28.54C42.9072 28.54 43.1914 28.5107 43.4668 28.4521C43.748 28.3936 44.0264 28.3203 44.3018 28.2324V30.2275C44.0146 30.3564 43.6572 30.4619 43.2295 30.5439C42.8076 30.6318 42.3447 30.6758 41.8408 30.6758C41.2549 30.6758 40.7275 30.582 40.2588 30.3945C39.7959 30.2012 39.4297 29.8701 39.1602 29.4014C38.8965 28.9268 38.7646 28.2676 38.7646 27.4238V22.6865H37.4814V21.5527L38.958 20.6562L39.7314 18.582H41.4453V20.6738H44.1963V22.6865H41.4453V27.4238C41.4453 27.7988 41.5508 28.0801 41.7617 28.2676C41.9785 28.4492 42.2627 28.54 42.6143 28.54ZM48.2575 16.8242V19.6104C48.2575 20.0967 48.24 20.5596 48.2048 20.999C48.1755 21.4385 48.1521 21.749 48.1345 21.9307H48.2751C48.4861 21.5908 48.7351 21.3154 49.0222 21.1045C49.3152 20.8936 49.6374 20.7383 49.989 20.6387C50.3405 20.5391 50.7185 20.4893 51.1228 20.4893C51.8318 20.4893 52.4499 20.6152 52.9773 20.8672C53.5046 21.1133 53.9148 21.5029 54.2077 22.0361C54.5007 22.5635 54.6472 23.249 54.6472 24.0928V30.5H51.9665V24.7607C51.9665 24.0576 51.8376 23.5273 51.5798 23.1699C51.322 22.8125 50.9236 22.6338 50.3845 22.6338C49.8454 22.6338 49.4206 22.7598 49.1101 23.0117C48.7995 23.2578 48.5798 23.624 48.4509 24.1104C48.322 24.5908 48.2575 25.1797 48.2575 25.877V30.5H45.5769V16.8242H48.2575ZM60.7123 20.4717C62.0307 20.4717 63.0414 20.7588 63.7446 21.333C64.4477 21.9072 64.7993 22.7803 64.7993 23.9521V30.5H62.9272L62.4086 29.1641H62.3383C62.0571 29.5156 61.77 29.8027 61.477 30.0254C61.184 30.248 60.8471 30.4121 60.4662 30.5176C60.0854 30.623 59.6225 30.6758 59.0776 30.6758C58.4975 30.6758 57.976 30.5645 57.5131 30.3418C57.0561 30.1191 56.6957 29.7793 56.4321 29.3223C56.1684 28.8594 56.0366 28.2734 56.0366 27.5645C56.0366 26.5215 56.4028 25.7539 57.1352 25.2617C57.8676 24.7637 58.9662 24.4883 60.4311 24.4355L62.1362 24.3828V23.9521C62.1362 23.4365 62.0014 23.0586 61.7319 22.8184C61.4623 22.5781 61.0873 22.458 60.6069 22.458C60.1323 22.458 59.6664 22.5254 59.2094 22.6602C58.7524 22.7949 58.2954 22.9648 57.8383 23.1699L56.9506 21.3594C57.4721 21.084 58.0551 20.8672 58.6996 20.709C59.35 20.5508 60.0209 20.4717 60.7123 20.4717ZM62.1362 25.9473L61.0991 25.9824C60.2319 26.0059 59.6284 26.1611 59.2885 26.4482C58.9545 26.7354 58.7875 27.1133 58.7875 27.582C58.7875 27.9922 58.9077 28.2852 59.1479 28.4609C59.3881 28.6309 59.7016 28.7158 60.0883 28.7158C60.6625 28.7158 61.1459 28.5459 61.5385 28.2061C61.937 27.8662 62.1362 27.3828 62.1362 26.7559V25.9473ZM70.9875 28.54C71.2804 28.54 71.5646 28.5107 71.84 28.4521C72.1213 28.3936 72.3996 28.3203 72.675 28.2324V30.2275C72.3879 30.3564 72.0304 30.4619 71.6027 30.5439C71.1808 30.6318 70.7179 30.6758 70.214 30.6758C69.6281 30.6758 69.1007 30.582 68.632 30.3945C68.1691 30.2012 67.8029 29.8701 67.5334 29.4014C67.2697 28.9268 67.1379 28.2676 67.1379 27.4238V22.6865H65.8546V21.5527L67.3312 20.6562L68.1046 18.582H69.8185V20.6738H72.5695V22.6865H69.8185V27.4238C69.8185 27.7988 69.924 28.0801 70.1349 28.2676C70.3517 28.4492 70.6359 28.54 70.9875 28.54ZM81.9313 20.4717C83.2496 20.4717 84.2604 20.7588 84.9635 21.333C85.6666 21.9072 86.0182 22.7803 86.0182 23.9521V30.5H84.1461L83.6275 29.1641H83.5572C83.276 29.5156 82.9889 29.8027 82.6959 30.0254C82.4029 30.248 82.066 30.4121 81.6852 30.5176C81.3043 30.623 80.8414 30.6758 80.2965 30.6758C79.7164 30.6758 79.1949 30.5645 78.732 30.3418C78.275 30.1191 77.9146 29.7793 77.651 29.3223C77.3873 28.8594 77.2555 28.2734 77.2555 27.5645C77.2555 26.5215 77.6217 25.7539 78.3541 25.2617C79.0865 24.7637 80.1852 24.4883 81.65 24.4355L83.3551 24.3828V23.9521C83.3551 23.4365 83.2203 23.0586 82.9508 22.8184C82.6813 22.5781 82.3063 22.458 81.8258 22.458C81.3512 22.458 80.8854 22.5254 80.4283 22.6602C79.9713 22.7949 79.5143 22.9648 79.0572 23.1699L78.1695 21.3594C78.691 21.084 79.274 20.8672 79.9186 20.709C80.5689 20.5508 81.2398 20.4717 81.9313 20.4717ZM83.3551 25.9473L82.318 25.9824C81.4508 26.0059 80.8473 26.1611 80.5074 26.4482C80.1734 26.7354 80.0064 27.1133 80.0064 27.582C80.0064 27.9922 80.1266 28.2852 80.3668 28.4609C80.607 28.6309 80.9205 28.7158 81.3072 28.7158C81.8814 28.7158 82.3648 28.5459 82.7574 28.2061C83.1559 27.8662 83.3551 27.3828 83.3551 26.7559V25.9473ZM93.6478 20.4893C94.6966 20.4893 95.5404 20.7764 96.179 21.3506C96.8177 21.9189 97.137 22.833 97.137 24.0928V30.5H94.4564V24.7607C94.4564 24.0576 94.3275 23.5273 94.0696 23.1699C93.8177 22.8125 93.4193 22.6338 92.8743 22.6338C92.054 22.6338 91.4945 22.9121 91.1956 23.4688C90.8968 24.0254 90.7474 24.8281 90.7474 25.877V30.5H88.0667V20.6738H90.1146L90.4749 21.9307H90.6243C90.8353 21.5908 91.096 21.3154 91.4066 21.1045C91.723 20.8936 92.0716 20.7383 92.4525 20.6387C92.8392 20.5391 93.2376 20.4893 93.6478 20.4893ZM102.288 30.6758C101.192 30.6758 100.299 30.248 99.6075 29.3926C98.9219 28.5312 98.5791 27.2686 98.5791 25.6045C98.5791 23.9229 98.9278 22.6514 99.625 21.79C100.322 20.9229 101.233 20.4893 102.358 20.4893C102.827 20.4893 103.24 20.5537 103.598 20.6826C103.955 20.8115 104.263 20.9844 104.521 21.2012C104.784 21.418 105.007 21.6611 105.189 21.9307H105.276C105.241 21.7432 105.197 21.4678 105.145 21.1045C105.098 20.7354 105.074 20.3574 105.074 19.9707V16.8242H107.764V30.5H105.707L105.189 29.2256H105.074C104.904 29.4951 104.69 29.7412 104.433 29.9639C104.181 30.1807 103.879 30.3535 103.527 30.4824C103.176 30.6113 102.763 30.6758 102.288 30.6758ZM103.229 28.54C103.961 28.54 104.477 28.3232 104.775 27.8896C105.08 27.4502 105.241 26.791 105.259 25.9121V25.6221C105.259 24.667 105.112 23.9375 104.819 23.4336C104.526 22.9238 103.981 22.6689 103.185 22.6689C102.593 22.6689 102.13 22.9238 101.796 23.4336C101.462 23.9434 101.295 24.6787 101.295 25.6396C101.295 26.6006 101.462 27.3242 101.796 27.8105C102.136 28.2969 102.613 28.54 103.229 28.54ZM117.943 28.54C118.236 28.54 118.52 28.5107 118.795 28.4521C119.077 28.3936 119.355 28.3203 119.63 28.2324V30.2275C119.343 30.3564 118.986 30.4619 118.558 30.5439C118.136 30.6318 117.673 30.6758 117.169 30.6758C116.583 30.6758 116.056 30.582 115.587 30.3945C115.124 30.2012 114.758 29.8701 114.489 29.4014C114.225 28.9268 114.093 28.2676 114.093 27.4238V22.6865H112.81V21.5527L114.287 20.6562L115.06 18.582H116.774V20.6738H119.525V22.6865H116.774V27.4238C116.774 27.7988 116.879 28.0801 117.09 28.2676C117.307 28.4492 117.591 28.54 117.943 28.54ZM123.586 16.8242V19.6104C123.586 20.0967 123.569 20.5596 123.533 20.999C123.504 21.4385 123.481 21.749 123.463 21.9307H123.604C123.815 21.5908 124.064 21.3154 124.351 21.1045C124.644 20.8936 124.966 20.7383 125.318 20.6387C125.669 20.5391 126.047 20.4893 126.451 20.4893C127.16 20.4893 127.779 20.6152 128.306 20.8672C128.833 21.1133 129.243 21.5029 129.536 22.0361C129.829 22.5635 129.976 23.249 129.976 24.0928V30.5H127.295V24.7607C127.295 24.0576 127.166 23.5273 126.908 23.1699C126.651 22.8125 126.252 22.6338 125.713 22.6338C125.174 22.6338 124.749 22.7598 124.439 23.0117C124.128 23.2578 123.908 23.624 123.779 24.1104C123.651 24.5908 123.586 25.1797 123.586 25.877V30.5H120.905V16.8242H123.586ZM140.945 25.5693C140.945 26.3896 140.834 27.1162 140.611 27.749C140.394 28.3818 140.075 28.918 139.653 29.3574C139.237 29.791 138.733 30.1191 138.142 30.3418C137.556 30.5645 136.893 30.6758 136.155 30.6758C135.464 30.6758 134.828 30.5645 134.248 30.3418C133.674 30.1191 133.173 29.791 132.745 29.3574C132.323 28.918 131.995 28.3818 131.761 27.749C131.532 27.1162 131.418 26.3896 131.418 25.5693C131.418 24.4795 131.611 23.5566 131.998 22.8008C132.385 22.0449 132.935 21.4707 133.65 21.0781C134.365 20.6855 135.218 20.4893 136.208 20.4893C137.128 20.4893 137.942 20.6855 138.651 21.0781C139.366 21.4707 139.926 22.0449 140.33 22.8008C140.74 23.5566 140.945 24.4795 140.945 25.5693ZM134.151 25.5693C134.151 26.2139 134.222 26.7559 134.362 27.1953C134.503 27.6348 134.723 27.9658 135.021 28.1885C135.32 28.4111 135.71 28.5225 136.19 28.5225C136.665 28.5225 137.049 28.4111 137.342 28.1885C137.641 27.9658 137.857 27.6348 137.992 27.1953C138.133 26.7559 138.203 26.2139 138.203 25.5693C138.203 24.9189 138.133 24.3799 137.992 23.9521C137.857 23.5186 137.641 23.1934 137.342 22.9766C137.043 22.7598 136.653 22.6514 136.173 22.6514C135.464 22.6514 134.948 22.8945 134.626 23.3809C134.309 23.8672 134.151 24.5967 134.151 25.5693ZM149.296 27.582C149.296 28.25 149.137 28.8154 148.821 29.2783C148.51 29.7354 148.045 30.084 147.423 30.3242C146.802 30.5586 146.029 30.6758 145.103 30.6758C144.418 30.6758 143.829 30.6318 143.337 30.5439C142.85 30.4561 142.358 30.3096 141.86 30.1045V27.8896C142.393 28.1299 142.964 28.3291 143.574 28.4873C144.189 28.6396 144.728 28.7158 145.191 28.7158C145.713 28.7158 146.085 28.6396 146.307 28.4873C146.536 28.3291 146.65 28.124 146.65 27.8721C146.65 27.708 146.603 27.5615 146.509 27.4326C146.422 27.2979 146.228 27.1484 145.929 26.9844C145.631 26.8145 145.162 26.5947 144.523 26.3252C143.908 26.0674 143.401 25.8066 143.003 25.543C142.61 25.2793 142.317 24.9688 142.124 24.6113C141.936 24.248 141.842 23.7881 141.842 23.2314C141.842 22.3232 142.194 21.6406 142.897 21.1836C143.606 20.7207 144.552 20.4893 145.736 20.4893C146.345 20.4893 146.925 20.5508 147.476 20.6738C148.033 20.7969 148.604 20.9932 149.19 21.2627L148.381 23.1963C147.895 22.9854 147.435 22.8125 147.002 22.6777C146.574 22.543 146.137 22.4756 145.692 22.4756C145.299 22.4756 145.004 22.5283 144.804 22.6338C144.605 22.7393 144.506 22.9004 144.506 23.1172C144.506 23.2754 144.555 23.416 144.655 23.5391C144.76 23.6621 144.96 23.7998 145.253 23.9521C145.551 24.0986 145.988 24.2891 146.562 24.5234C147.119 24.752 147.602 24.9922 148.012 25.2441C148.423 25.4902 148.739 25.7979 148.962 26.167C149.184 26.5303 149.296 27.002 149.296 27.582ZM154.719 20.4893C155.627 20.4893 156.41 20.665 157.066 21.0166C157.722 21.3623 158.229 21.8662 158.586 22.5283C158.944 23.1904 159.122 23.999 159.122 24.9541V26.2549H152.786C152.815 27.0107 153.04 27.6055 153.462 28.0391C153.89 28.4668 154.482 28.6807 155.238 28.6807C155.865 28.6807 156.439 28.6162 156.96 28.4873C157.482 28.3584 158.018 28.165 158.569 27.9072V29.9814C158.082 30.2217 157.573 30.3975 157.039 30.5088C156.512 30.6201 155.87 30.6758 155.115 30.6758C154.13 30.6758 153.257 30.4941 152.495 30.1309C151.74 29.7676 151.145 29.2139 150.711 28.4697C150.284 27.7256 150.07 26.7881 150.07 25.6572C150.07 24.5088 150.263 23.5537 150.65 22.792C151.042 22.0244 151.587 21.4502 152.285 21.0693C152.982 20.6826 153.793 20.4893 154.719 20.4893ZM154.737 22.3965C154.215 22.3965 153.782 22.5635 153.436 22.8975C153.096 23.2314 152.9 23.7559 152.847 24.4707H156.609C156.603 24.0723 156.53 23.7178 156.389 23.4072C156.254 23.0967 156.049 22.8506 155.774 22.6689C155.504 22.4873 155.159 22.3965 154.737 22.3965Z" fill="#55644a"/>
</svg>