<svg width="24" height="25" viewBox="0 0 24 25" fill="none" xmlns="http://www.w3.org/2000/svg">
<mask id="mask0_535_8581" style="mask-type:alpha" maskUnits="userSpaceOnUse" x="0" y="0" width="24" height="25">
<rect y="0.883301" width="24" height="24" fill="#D9D9D9"/>
</mask>
<g mask="url(#mask0_535_8581)">
<path d="M4.25 18.5178C4.0375 18.5178 3.85942 18.4459 3.71575 18.3021C3.57192 18.1584 3.5 17.9802 3.5 17.7676C3.5 17.5551 3.57192 17.377 3.71575 17.2333C3.85942 17.0898 4.0375 17.0181 4.25 17.0181H19.75C19.9625 17.0181 20.1406 17.0899 20.2843 17.2336C20.4281 17.3774 20.5 17.5556 20.5 17.7683C20.5 17.9808 20.4281 18.1589 20.2843 18.3026C20.1406 18.4461 19.9625 18.5178 19.75 18.5178H4.25ZM4.25 13.6333C4.0375 13.6333 3.85942 13.5614 3.71575 13.4176C3.57192 13.2737 3.5 13.0956 3.5 12.8831C3.5 12.6704 3.57192 12.4923 3.71575 12.3488C3.85942 12.2051 4.0375 12.1333 4.25 12.1333H19.75C19.9625 12.1333 20.1406 12.2052 20.2843 12.3491C20.4281 12.4929 20.5 12.6711 20.5 12.8836C20.5 13.0962 20.4281 13.2743 20.2843 13.4178C20.1406 13.5615 19.9625 13.6333 19.75 13.6333H4.25ZM4.25 8.74856C4.0375 8.74856 3.85942 8.67673 3.71575 8.53306C3.57192 8.38923 3.5 8.21098 3.5 7.99831C3.5 7.78581 3.57192 7.60773 3.71575 7.46406C3.85942 7.32056 4.0375 7.24881 4.25 7.24881H19.75C19.9625 7.24881 20.1406 7.32073 20.2843 7.46456C20.4281 7.60823 20.5 7.78639 20.5 7.99906C20.5 8.21156 20.4281 8.38964 20.2843 8.53331C20.1406 8.67681 19.9625 8.74856 19.75 8.74856H4.25Z" fill="#1C1B1F"/>
</g>
</svg>
